<svg width="85" height="80" fill="none" xmlns="http://www.w3.org/2000/svg"><g clip-path="url(#clip0_3050_1643)"><path d="m54.146 1.89.52.205a17.116 17.116 0 0 1 8.574 7.37l1.238 2.144 2.016.164a9.794 9.794 0 0 1 7.272 4.206 6.855 6.855 0 0 0 2.101 1.98l.564.34a10 10 0 0 1 4.697 6.94l.597 3.634a11.634 11.634 0 0 1-.842 6.595 9.843 9.843 0 0 0-.518 6.493l.752 2.854c.668 2.535.804 5.181.4 7.771l-.377 2.407a6.865 6.865 0 0 1-3.294 4.854 6.18 6.18 0 0 0-2.51 2.82l-.057.13a8.848 8.848 0 0 1-6.682 5.148 7.393 7.393 0 0 0-4.892 3.073l-.944 1.356a16 16 0 0 1-8.631 6.216l-1.154.338c-2.023.594-4.155-.585-4.764-2.603a21.38 21.38 0 0 1-.391-10.888l.24-1.057a12.819 12.819 0 0 0-.355-6.951l-.078-.23a12.19 12.19 0 0 1 .382-8.795l1.252-2.857a7.398 7.398 0 0 0-.24-6.433l-.53-.997a8.471 8.471 0 0 1 .452-8.69c.55-.818.89-1.757.994-2.736l.401-3.782a11.64 11.64 0 0 0-1.144-6.394 14.551 14.551 0 0 1-1.26-9.152l.428-2.272a4.291 4.291 0 0 1 5.783-3.2Z" stroke="#03007C" stroke-width="2"/><path d="M57.967 19.994a1 1 0 0 0-.807 1.83l.807-1.83Zm5.493-8.39 1.076 4.361 1.942-.479-1.076-4.362-1.942.48Zm-3.965 9.065-1.528-.675-.807 1.83 1.528.674.807-1.83Zm3.698-.54a3.515 3.515 0 0 1-3.698.54l-.807 1.83a5.516 5.516 0 0 0 5.802-.848l-1.297-1.522Zm1.343-4.164a4.16 4.16 0 0 1-1.343 4.164l1.297 1.522a6.16 6.16 0 0 0 1.988-6.165l-1.942.48ZM61.49 57.636a1 1 0 1 0 0 2v-2Zm5.517 7.936-.972-.236.972.236Zm-.12-2.928-.949.315.95-.315Zm.347 6.228.745-3.064-1.944-.472-.744 3.064 1.943.472Zm.602-6.543-.048-.145-1.898.63.048.145 1.898-.63Zm-.048-.145a6.636 6.636 0 0 0-6.299-4.548v2a4.636 4.636 0 0 1 4.4 3.177l1.9-.63Zm.19 3.624c.28-1.15.23-2.355-.142-3.479l-1.898.63c.254.767.288 1.591.097 2.377l1.944.472ZM66.559 47.273v-1h-2v1h2Zm3.248 3.786-.072-.998.072.998Zm4.53 1.898-.867.496.868-.496Zm.99 1.732.869-.496-.868.496Zm.286.653.954-.3-.954.3Zm.583-1.15-.99-1.73-1.736.991.99 1.732 1.736-.992Zm-6.461-4.13-.462.033.143 1.994.462-.033-.143-1.995Zm-3.176-2.494v-.295h-2v.295h2Zm10.324 8.478-.316-1.004-1.908.6.316 1.005 1.908-.6Zm-7.61-5.951a2.533 2.533 0 0 1-2.714-2.527h-2a4.533 4.533 0 0 0 4.857 4.521l-.143-1.994Zm4.895 1.216a6.782 6.782 0 0 0-4.433-1.25l.143 1.995a4.782 4.782 0 0 1 3.126.881l1.164-1.626Zm1.038 1.15a3.627 3.627 0 0 0-1.038-1.15l-1.164 1.626c.19.137.35.313.466.516l1.736-.992Zm1.619 9.675a9.846 9.846 0 0 0 .058-6.09l-1.908.6a7.847 7.847 0 0 1-.046 4.854l1.896.636Zm-2.366-6.95c.083.144.15.297.2.456l1.908-.6a4.335 4.335 0 0 0-.371-.85l-1.737.993ZM62.031 33.723a1 1 0 0 0 1.139 1.644l-1.139-1.644Zm1.745-7.903.472.881-.472-.881Zm2.538-1.105.167-.986-.167.986Zm-.95.256-.47-.882.47.882Zm-1.695 8.834-.569-.822.57.822Zm10.826-15.699.168.41 1.85-.758-.168-.41-1.85.758Zm.262 5.508c-.414.807-.849 1.378-1.255 1.647l1.104 1.668c.845-.56 1.473-1.51 1.93-2.4l-1.78-.915Zm-1.255 1.647c-.911.603-2.016.48-3.339-.023-.65-.247-1.267-.553-1.886-.845-.567-.267-1.22-.567-1.796-.664l-.334 1.972c.256.043.653.207 1.277.501.571.27 1.285.622 2.028.905 1.464.558 3.396.985 5.154-.178l-1.104-1.668Zm-8.609-1.172-1.588.849.943 1.763 1.588-.849-.943-1.763ZM63.1 32.983l-1.069.74 1.139 1.644 1.069-.74-1.139-1.644Zm.205-8.045c-2.426 1.297-2.559 4.727-.24 6.207l1.077-1.686a1.599 1.599 0 0 1 .106-2.758l-.943-1.763Zm3.176-1.21c-.714-.12-1.321.218-1.588.36l.943 1.764c.145-.077.23-.117.297-.138.057-.019.052-.007.014-.013l.334-1.972Zm-3.415 7.417c.664.424.683 1.389.034 1.838l1.139 1.644c1.823-1.263 1.772-3.975-.097-5.168l-1.076 1.686Zm11.597-12.628c.72 1.755.858 3.61.094 5.098l1.779.913c1.126-2.191.826-4.7-.023-6.77l-1.85.759ZM59.283 39.592l-.863-.506-1.012 1.725.863.506 1.012-1.725Zm-10.358 18.77a1 1 0 0 0 .808 1.83l-.808-1.83Zm5.803-7-.996.087.996-.087Zm3.343-6.325-.223-.974.223.974Zm-8.762 13.156-.384.169.808 1.83.383-.17-.807-1.83Zm8.54-14.13-1.77.404.445 1.95 1.77-.405-.446-1.95Zm-4.408 4.023.291 3.363 1.993-.173-.292-3.363-1.992.173Zm2.638-3.62a3.41 3.41 0 0 0-2.638 3.62l1.992-.173a1.41 1.41 0 0 1 1.091-1.496l-.445-1.95Zm-2.511 8.788a7.597 7.597 0 0 1-4.26 4.939l.808 1.83a9.597 9.597 0 0 0 5.38-6.239l-1.928-.53Zm1.928.53a7.143 7.143 0 0 0 .229-2.508l-1.993.173a5.14 5.14 0 0 1-.164 1.806l1.928.53Zm2.775-12.467c1.167.685.896 2.444-.423 2.745l.446 1.95c3.084-.705 3.718-4.82.989-6.42l-1.012 1.725ZM56.877 67.01a.5.5 0 0 0-.445.896l.445-.895Zm.225 9.454-2.11 1.496.579.815 2.11-1.496-.58-.815Zm-.67-8.558c3.388 1.682 3.755 6.37.67 8.558l.578.816c3.702-2.626 3.262-8.252-.803-10.27l-.445.896Z" fill="#03007C"/><path d="m67.82 44.546-.613-.41a3.478 3.478 0 0 1-1.41-3.841 3.23 3.23 0 0 0 .062-1.513l-.017-.085c-.186-.932-.612-1.808-1.356-2.399-2.014-1.598-5.56-3.49-6.458-1.112-.932 2.47-3.912 1.073-5.07-.518-.348-.477-.167-1.1.252-1.517L55 31.374c.66-.655.66-1.722 0-2.376a5.692 5.692 0 0 0-4.81-1.597l-.403.058" stroke="#03007C"/><path d="M75.293 32.532a.5.5 0 1 0-.648.762l.648-.762Zm6.043-1.892c0 .347-.167.802-.52 1.267a4.198 4.198 0 0 1-1.436 1.184c-1.161.585-2.657.658-4.087-.559l-.648.762c1.775 1.51 3.713 1.432 5.184.69a5.195 5.195 0 0 0 1.783-1.472c.434-.572.725-1.234.725-1.872h-1Z" fill="#03007C"/><path d="m74.511 25.64-.535 2.125a2 2 0 0 1-1.94 1.511h-1.928c-.402 0-.785.176-1.047.48a2.769 2.769 0 0 0 .864 4.29l.465.23c1.374.455 3.663 1.819 1.832 3.637-1.626 1.614-2.747 1.818-2.747 1.818" stroke="#03007C"/><path d="M54.349 13.981a.5.5 0 0 0 .948-.318l-.948.318Zm1.501-5.008.369.338-.369-.338Zm6.562-1.03-.612-.38-.528.85.613.38.527-.85Zm-6.72.462-.21.23.737.676.211-.231-.737-.675Zm-.21.23a5.38 5.38 0 0 0-1.133 5.346l.948-.318a4.38 4.38 0 0 1 .922-4.352l-.738-.676ZM61.8 7.563a4.829 4.829 0 0 0-6.107.842l.737.675a3.829 3.829 0 0 1 4.842-.668l.528-.85ZM59.86 12.413a.5.5 0 0 0 0 1v-1Zm-3.401 4.915-.041.498.041-.498Zm3.4-3.915h.273v-1h-.272v1Zm-.678 3.639-2.68-.222-.083.997 2.68.221.083-.996Zm-9.599 2.606-.173.2.757.654.173-.2-.757-.654ZM56.5 16.83a8.242 8.242 0 0 0-6.918 2.828l.757.653a7.242 7.242 0 0 1 6.079-2.485l.082-.996Zm4.737-2.708c.66 1.442-.476 3.06-2.056 2.93l-.082.996c2.342.194 4.026-2.205 3.048-4.342l-.91.416Zm-1.105-.71c.476 0 .907.278 1.105.71l.91-.416a2.216 2.216 0 0 0-2.015-1.293v1ZM77.011 28.841a.5.5 0 0 0 .494.87l-.494-.87Zm.514.284-.247-.435.247.435Zm-2.098-4.803h1.11v-1h-1.11v1Zm1.851 4.368-.267.151.494.87.267-.151-.494-.87Zm.75-3.626a2.462 2.462 0 0 1-.75 3.626l.494.87a3.462 3.462 0 0 0 1.054-5.098l-.798.602Zm-1.492-.742a1.87 1.87 0 0 1 1.492.742l.798-.602a2.87 2.87 0 0 0-2.29-1.14v1Z" fill="#03007C"/><path d="m69.932 26.095 1.12-2.502c.46-1.026.541-2.182.23-3.262l-.153-.53a2.575 2.575 0 0 0-1.156-1.5 3.605 3.605 0 0 0-2.977-.325l-1.184.392M52.992 56.55l.24 3.097a3.046 3.046 0 0 0 3.038 2.811c.839 0 1.65.303 2.283.854L59 63.7a4.436 4.436 0 0 0 4.881.624l2.846-1.412M57.57 36.095c2.04.934 1.812 3.902-.346 4.514l-1.957.555a3.026 3.026 0 0 0-1.936 1.675l-.301.671a2.928 2.928 0 0 1-3.243 1.676M74.053 52.913l-.582.577a7.979 7.979 0 0 1-4.067 2.164l-.659.13a5.655 5.655 0 0 1-3.062-.249 5.874 5.874 0 0 1-3.19-2.847 6.122 6.122 0 0 0-2.334-2.506l-.102-.06a4.038 4.038 0 0 0-1.408-.516l-.468-.077a3.024 3.024 0 0 0-2.624.837l-.734.728" stroke="#03007C"/><path d="m70.848 55.185.555.827a2.009 2.009 0 0 1-.775 2.92l-.365.18a1.726 1.726 0 0 0-.907 1.968 4.488 4.488 0 0 0 2.787 3.11l1.452.541M80.006 42.004l-.97.722c-.561.418-.98.997-1.203 1.66-.077.228-.117.468-.117.71v.75c0 .956-.628 1.8-1.545 2.073l-.169.05a3.211 3.211 0 0 1-3.92-1.943c-.753-1.993-3.394-2.41-4.75-.766a3.541 3.541 0 0 1-2.725 1.29h-.999a3.762 3.762 0 0 0-3.615 2.721l-.133.46M80.92 56.094l-1.408-.155a1.823 1.823 0 0 1-1.398-2.69 3.95 3.95 0 0 0-.68-4.706l-.634-.63" stroke="#03007C"/><path d="M52.8 70.465a.5.5 0 0 0 .37-.93l-.37.93Zm1.727-8.6-1.063.754.578.816 1.063-.754-.578-.816Zm-2.148 8.433.421.167.37-.93-.421-.166-.37.929Zm-1.777-3.277a2.908 2.908 0 0 0 1.778 3.277l.369-.93a1.908 1.908 0 0 1-1.166-2.15l-.98-.197Zm2.862-4.402a7.121 7.121 0 0 0-2.862 4.402l.98.198a6.12 6.12 0 0 1 2.46-3.784l-.578-.816ZM58.953 24.25a.5.5 0 0 0-.948-.318l.948.318Zm-4.82 2.542-.492-.082.493.082Zm.26 1.473.234-1.39-.986-.165-.234 1.389.987.166Zm1.322-2.31h.868v-1h-.868v1Zm.868 0a2.5 2.5 0 0 0 2.37-1.705l-.948-.318a1.5 1.5 0 0 1-1.422 1.023v1Zm-1.956.92c.089-.531.549-.92 1.088-.92v-1a2.103 2.103 0 0 0-2.075 1.755l.987.165ZM9.566 15.16l.463.886-.463-.886ZM34.31 2.242l-.462-.887.462.887Zm4.403 7.688a1 1 0 1 0 2 0h-2ZM9.476 64.997l-.472.882.472-.882Zm24.797 13.296.473-.881-.473.881Zm6.439-7.952a1 1 0 0 0-2 0h2ZM23.169 26.654l.485.875-.485-.875Zm.111 28.065-.464.886.465-.886ZM5.582 33.81V23.408h-2v10.401h2Zm4.447-17.763L34.772 3.128l-.925-1.773L9.103 14.273l.926 1.773ZM38.712 5.541V9.93h2V5.54h-2Zm-3.94-2.413c1.788-.933 3.94.367 3.94 2.413h2c0-3.53-3.73-5.823-6.865-4.186l.925 1.773Zm-29.19 20.28a8.3 8.3 0 0 1 4.447-7.362l-.926-1.773a10.3 10.3 0 0 0-5.521 9.135h2Zm-2 22.484v10.905h2V45.892h-2Zm5.422 19.987L33.8 79.175l.945-1.763L9.95 64.116l-.945 1.763Zm31.708 9.134v-4.672h-2v4.672h2ZM33.8 79.175c3.137 1.682 6.91-.609 6.91-4.162h-2c0 2.06-2.176 3.358-3.965 2.399l-.945 1.763ZM3.582 56.797c0 3.799 2.083 7.291 5.422 9.082l.945-1.763a8.301 8.301 0 0 1-4.367-7.32h-2Zm34.72-39.662-15.617 8.644.969 1.75 15.617-8.645-.968-1.75ZM19.299 31.539v18.235h2V31.54h-2Zm3.518 24.066 15.077 7.902.928-1.772-15.076-7.901-.929 1.77Zm-3.518-5.83a6.58 6.58 0 0 0 3.518 5.83l.929-1.771a4.58 4.58 0 0 1-2.447-4.06h-2Zm3.387-23.996a6.581 6.581 0 0 0-3.387 5.76h2c0-1.67.904-3.207 2.356-4.01l-.969-1.75Z" fill="#03007C"/><path d="M7.355 33.81a2.78 2.78 0 0 1-2.773 2.787 2.78 2.78 0 0 1-2.773-2.788 2.78 2.78 0 0 1 2.773-2.788 2.78 2.78 0 0 1 2.773 2.788ZM41.56 18.01a2.78 2.78 0 0 1-2.773 2.788 2.78 2.78 0 0 1-2.773-2.789 2.78 2.78 0 0 1 2.773-2.788 2.78 2.78 0 0 1 2.773 2.788ZM41.56 62.62a2.78 2.78 0 0 1-2.773 2.789 2.78 2.78 0 0 1-2.773-2.788 2.78 2.78 0 0 1 2.773-2.788 2.78 2.78 0 0 1 2.773 2.788ZM7.355 44.962a2.78 2.78 0 0 1-2.773 2.788 2.78 2.78 0 0 1-2.773-2.788 2.78 2.78 0 0 1 2.773-2.788 2.78 2.78 0 0 1 2.773 2.788Z" fill="#03007C"/></g></svg>