<svg width="940" height="1102" viewBox="0 0 940 1102" fill="none" xmlns="http://www.w3.org/2000/svg">
<mask id="path-1-inside-1_630_7735" fill="white">
<path fill-rule="evenodd" clip-rule="evenodd" d="M60 0C26.8629 0 0 26.8629 0 60V867V1018V1042C0 1075.14 26.8629 1102 60 1102H477C488.046 1102 497 1093.05 497 1082V1050C497 1032.33 511.327 1018 529 1018H920C931.046 1018 940 1009.05 940 998V60C940 26.8629 913.137 0 880 0H60Z"/>
</mask>
<path fill-rule="evenodd" clip-rule="evenodd" d="M60 0C26.8629 0 0 26.8629 0 60V867V1018V1042C0 1075.14 26.8629 1102 60 1102H477C488.046 1102 497 1093.05 497 1082V1050C497 1032.33 511.327 1018 529 1018H920C931.046 1018 940 1009.05 940 998V60C940 26.8629 913.137 0 880 0H60Z" fill="white"/>
<path d="M4 60C4 29.0721 29.0721 4 60 4V-4C24.6538 -4 -4 24.6538 -4 60H4ZM4 867V60H-4V867H4ZM4 1018V867H-4V1018H4ZM4 1042V1018H-4V1042H4ZM60 1098C29.072 1098 4 1072.93 4 1042H-4C-4 1077.35 24.6538 1106 60 1106V1098ZM477 1098H60V1106H477V1098ZM493 1082C493 1090.84 485.837 1098 477 1098V1106C490.255 1106 501 1095.25 501 1082H493ZM493 1050V1082H501V1050H493ZM920 1014H529V1022H920V1014ZM936 998C936 1006.84 928.837 1014 920 1014V1022C933.255 1022 944 1011.25 944 998H936ZM936 60V998H944V60H936ZM880 4C910.928 4 936 29.0721 936 60H944C944 24.6538 915.346 -4 880 -4V4ZM60 4H880V-4H60V4ZM501 1050C501 1034.54 513.536 1022 529 1022V1014C509.118 1014 493 1030.12 493 1050H501Z" fill="url(#paint0_linear_630_7735)" mask="url(#path-1-inside-1_630_7735)"/>
<path d="M4 60C4 29.0721 29.0721 4 60 4V-4C24.6538 -4 -4 24.6538 -4 60H4ZM4 867V60H-4V867H4ZM4 1018V867H-4V1018H4ZM4 1042V1018H-4V1042H4ZM60 1098C29.072 1098 4 1072.93 4 1042H-4C-4 1077.35 24.6538 1106 60 1106V1098ZM477 1098H60V1106H477V1098ZM493 1082C493 1090.84 485.837 1098 477 1098V1106C490.255 1106 501 1095.25 501 1082H493ZM493 1050V1082H501V1050H493ZM920 1014H529V1022H920V1014ZM936 998C936 1006.84 928.837 1014 920 1014V1022C933.255 1022 944 1011.25 944 998H936ZM936 60V998H944V60H936ZM880 4C910.928 4 936 29.0721 936 60H944C944 24.6538 915.346 -4 880 -4V4ZM60 4H880V-4H60V4ZM501 1050C501 1034.54 513.536 1022 529 1022V1014C509.118 1014 493 1030.12 493 1050H501Z" fill="url(#paint1_radial_630_7735)" mask="url(#path-1-inside-1_630_7735)"/>
<defs>
<linearGradient id="paint0_linear_630_7735" x1="940" y1="1102" x2="-124.811" y2="137.841" gradientUnits="userSpaceOnUse">
<stop stop-color="#02012B"/>
<stop offset="1" stop-color="#2955EC"/>
</linearGradient>
<radialGradient id="paint1_radial_630_7735" cx="0" cy="0" r="1" gradientUnits="userSpaceOnUse" gradientTransform="translate(940 2.68993e-05) rotate(124.676) scale(751.962 699.456)">
<stop stop-color="#730F94"/>
<stop offset="0.630121" stop-color="#AF46D2" stop-opacity="0.2"/>
<stop offset="1" stop-color="#AF46D2" stop-opacity="0"/>
</radialGradient>
</defs>
</svg>
