<svg width="13" height="17" viewBox="0 0 13 17" fill="none" xmlns="http://www.w3.org/2000/svg">
<rect width="13" height="17" fill="#F2F2F2"/>
<g clip-path="url(#clip0_170_444)">
<rect width="1920" height="1814" transform="translate(-1362 -152)" fill="white"/>
<rect x="-42" y="-23" width="349" height="62" rx="19" stroke="#03007C" stroke-width="2"/>
<mask id="path-2-inside-1_170_444" fill="white">
<path d="M11.9997 13.8333C11.9997 14.4964 11.7363 15.1323 11.2674 15.6011C10.7986 16.0699 10.1627 16.3333 9.49967 16.3333H3.66634C3.0033 16.3333 2.36742 16.0699 1.89857 15.6011C1.42973 15.1323 1.16634 14.4964 1.16634 13.8333V3.83333H0.333008V1.33333H4.08301L4.91634 0.5H8.24967L9.08301 1.33333H12.833V3.83333H11.9997V13.8333ZM1.99967 3.83333V13.8333C1.99967 14.2754 2.17527 14.6993 2.48783 15.0118C2.80039 15.3244 3.22431 15.5 3.66634 15.5H9.49967C9.9417 15.5 10.3656 15.3244 10.6782 15.0118C10.9907 14.6993 11.1663 14.2754 11.1663 13.8333V3.83333H1.99967ZM11.9997 3V2.16667H8.66634L7.83301 1.33333H5.33301L4.49967 2.16667H1.16634V3H11.9997ZM3.66634 5.5H4.49967V13.8333H3.66634V5.5ZM8.66634 5.5H9.49967V13.8333H8.66634V5.5Z"/>
</mask>
<path d="M11.9997 13.8333C11.9997 14.4964 11.7363 15.1323 11.2674 15.6011C10.7986 16.0699 10.1627 16.3333 9.49967 16.3333H3.66634C3.0033 16.3333 2.36742 16.0699 1.89857 15.6011C1.42973 15.1323 1.16634 14.4964 1.16634 13.8333V3.83333H0.333008V1.33333H4.08301L4.91634 0.5H8.24967L9.08301 1.33333H12.833V3.83333H11.9997V13.8333ZM1.99967 3.83333V13.8333C1.99967 14.2754 2.17527 14.6993 2.48783 15.0118C2.80039 15.3244 3.22431 15.5 3.66634 15.5H9.49967C9.9417 15.5 10.3656 15.3244 10.6782 15.0118C10.9907 14.6993 11.1663 14.2754 11.1663 13.8333V3.83333H1.99967ZM11.9997 3V2.16667H8.66634L7.83301 1.33333H5.33301L4.49967 2.16667H1.16634V3H11.9997ZM3.66634 5.5H4.49967V13.8333H3.66634V5.5ZM8.66634 5.5H9.49967V13.8333H8.66634V5.5Z" fill="#151515" stroke="#03007C" stroke-width="1.66667" mask="url(#path-2-inside-1_170_444)"/>
</g>
<defs>
<clipPath id="clip0_170_444">
<rect width="1920" height="1814" fill="white" transform="translate(-1362 -152)"/>
</clipPath>
</defs>
</svg>
