<svg width="0" height="0" style="display: none;">
  <symbol id="checkbox" viewBox="0 0 20 20" fill="none" xmlns="http://www.w3.org/2000/svg">
    <path d="M5.23801 3.33325H14.7618C15.267 3.33325 15.7515 3.53393 16.1087 3.89114C16.4659 4.24836 16.6666 4.73284 16.6666 5.23801V14.7618C16.6666 15.267 16.4659 15.7515 16.1087 16.1087C15.7515 16.4659 15.267 16.6666 14.7618 16.6666H5.23801C4.73284 16.6666 4.24836 16.4659 3.89114 16.1087C3.53393 15.7515 3.33325 15.267 3.33325 14.7618V5.23801C3.33325 4.73284 3.53393 4.24836 3.89114 3.89114C4.24836 3.53393 4.73284 3.33325 5.23801 3.33325Z" stroke="currentColor" stroke-linecap="round" stroke-linejoin="round"/>
  </symbol>
  <symbol id="checkbox-checked" viewBox="0 0 20 20" fill="none" xmlns="http://www.w3.org/2000/svg">
    <path d="M7.14278 10.0002L9.04754 11.9049L12.8571 8.0954M5.23801 3.3335H14.7618C15.267 3.3335 15.7515 3.53418 16.1087 3.89139C16.4659 4.2486 16.6666 4.73308 16.6666 5.23826V14.7621C16.6666 15.2672 16.4659 15.7517 16.1087 16.1089C15.7515 16.4661 15.267 16.6668 14.7618 16.6668H5.23801C4.73284 16.6668 4.24836 16.4661 3.89114 16.1089C3.53393 15.7517 3.33325 15.2672 3.33325 14.7621V5.23826C3.33325 4.73308 3.53393 4.2486 3.89114 3.89139C4.24836 3.53418 4.73284 3.3335 5.23801 3.3335Z" stroke="currentColor" stroke-linecap="round" stroke-linejoin="round"/>
  </symbol>
  <symbol id="eye-closed" viewBox="0 0 20 20" fill="none" xmlns="http://www.w3.org/2000/svg">
    <path d="M5.91526 5.96189C4.50193 6.83141 3.16479 8.17808 1.90479 9.99999C4.32098 13.4924 7.01907 15.2381 10 15.2381C11.3553 15.2381 12.6524 14.8762 13.8905 14.1552M15.4029 13.0695C16.3362 12.2667 17.2334 11.2447 18.0953 9.99999C15.6791 6.5076 12.981 4.76189 10 4.76189C9.20955 4.76189 8.43812 4.8857 7.68669 5.13046M3.80955 3.80951L16.1905 16.2581" stroke="currentColor" stroke-linecap="round" stroke-linejoin="round"/>
  </symbol>
  <symbol id="eye-opened" viewBox="0 0 20 20" fill="none" xmlns="http://www.w3.org/2000/svg">
    <path fill-rule="evenodd" clip-rule="evenodd" d="M10 15.2381C12.981 15.2381 15.6791 13.4924 18.0953 10C15.6791 6.50762 12.981 4.7619 10 4.7619C7.01907 4.7619 4.32098 6.50762 1.90479 10C4.32098 13.4924 7.01907 15.2381 10 15.2381Z" stroke="currentColor" stroke-linecap="round" stroke-linejoin="round"/>
    <path fill-rule="evenodd" clip-rule="evenodd" d="M10 6.66666C10.1762 6.66666 10.3486 6.68 10.5172 6.70666C10.4463 7.08675 10.4691 7.47837 10.5835 7.84769C10.6979 8.217 10.9006 8.55289 11.1739 8.82633C11.4473 9.09977 11.7831 9.30253 12.1524 9.41708C12.5216 9.53164 12.9132 9.55454 13.2934 9.48381C13.3989 10.1569 13.2956 10.8462 12.9974 11.4589C12.6992 12.0715 12.2204 12.578 11.6255 12.9102C11.0307 13.2425 10.3483 13.3844 9.67028 13.317C8.99228 13.2495 8.35123 12.9759 7.83346 12.533C7.3157 12.0901 6.9461 11.4992 6.77443 10.8398C6.60277 10.1805 6.63728 9.48432 6.87333 8.84517C7.10939 8.20602 7.53563 7.65456 8.09467 7.26505C8.6537 6.87554 9.31867 6.66671 10 6.66666Z" stroke="currentColor" stroke-linecap="round" stroke-linejoin="round"/>
  </symbol>
  <symbol id="menu" viewBox="0 0 20 20" fill="none" xmlns="http://www.w3.org/2000/svg">
    <path d="M14.7619 10H8.09521M14.7619 13.8095H8.09521M14.7619 6.19049H8.09521" stroke="currentColor" stroke-width="1.5" stroke-linecap="round" stroke-linejoin="round"/>
    <path fill-rule="evenodd" clip-rule="evenodd" d="M5.23707 7.14286C5.71326 7.14286 6.18945 6.66667 6.18945 6.19048C6.18945 5.71429 5.71326 5.2381 5.23707 5.2381C4.76088 5.2381 4.28564 5.71429 4.28564 6.19048C4.28564 6.66667 4.76088 7.14286 5.23707 7.14286ZM5.23707 10.9524C5.71326 10.9524 6.18945 10.4762 6.18945 10C6.18945 9.52381 5.71326 9.04762 5.23707 9.04762C4.76088 9.04762 4.28564 9.52381 4.28564 10C4.28564 10.4762 4.76088 10.9524 5.23707 10.9524ZM5.23707 14.7619C5.71326 14.7619 6.18945 14.2857 6.18945 13.8095C6.18945 13.3333 5.71326 12.8571 5.23707 12.8571C4.76088 12.8571 4.28564 13.3333 4.28564 13.8095C4.28564 14.2857 4.76088 14.7619 5.23707 14.7619Z" fill="currentColor"/>
  </symbol>
  <symbol id="close" viewBox="0 0 20 20" fill="none" xmlns="http://www.w3.org/2000/svg">
    <path d="M14.7618 14.7619L5.23804 5.2381M14.7618 5.2381L5.23804 14.7619" stroke="currentColor" stroke-linecap="round" stroke-linejoin="round"/>
  </symbol>
</svg>