<svg width="0" height="0" style="display: none;">
  <symbol id="checkbox" viewBox="0 0 20 20" fill="none" xmlns="http://www.w3.org/2000/svg">
    <path
      d="M5.23801 3.33325H14.7618C15.267 3.33325 15.7515 3.53393 16.1087 3.89114C16.4659 4.24836 16.6666 4.73284 16.6666 5.23801V14.7618C16.6666 15.267 16.4659 15.7515 16.1087 16.1087C15.7515 16.4659 15.267 16.6666 14.7618 16.6666H5.23801C4.73284 16.6666 4.24836 16.4659 3.89114 16.1087C3.53393 15.7515 3.33325 15.267 3.33325 14.7618V5.23801C3.33325 4.73284 3.53393 4.24836 3.89114 3.89114C4.24836 3.53393 4.73284 3.33325 5.23801 3.33325Z"
      stroke="currentColor" stroke-linecap="round" stroke-linejoin="round" />
  </symbol>
  <symbol id="checkbox-checked" viewBox="0 0 20 20" fill="none" xmlns="http://www.w3.org/2000/svg">
    <path
      d="M7.14278 10.0002L9.04754 11.9049L12.8571 8.0954M5.23801 3.3335H14.7618C15.267 3.3335 15.7515 3.53418 16.1087 3.89139C16.4659 4.2486 16.6666 4.73308 16.6666 5.23826V14.7621C16.6666 15.2672 16.4659 15.7517 16.1087 16.1089C15.7515 16.4661 15.267 16.6668 14.7618 16.6668H5.23801C4.73284 16.6668 4.24836 16.4661 3.89114 16.1089C3.53393 15.7517 3.33325 15.2672 3.33325 14.7621V5.23826C3.33325 4.73308 3.53393 4.2486 3.89114 3.89139C4.24836 3.53418 4.73284 3.3335 5.23801 3.3335Z"
      stroke="currentColor" stroke-linecap="round" stroke-linejoin="round" />
  </symbol>
  <symbol id="eye-closed" viewBox="0 0 20 20" fill="none" xmlns="http://www.w3.org/2000/svg">
    <path
      d="M5.91526 5.96189C4.50193 6.83141 3.16479 8.17808 1.90479 9.99999C4.32098 13.4924 7.01907 15.2381 10 15.2381C11.3553 15.2381 12.6524 14.8762 13.8905 14.1552M15.4029 13.0695C16.3362 12.2667 17.2334 11.2447 18.0953 9.99999C15.6791 6.5076 12.981 4.76189 10 4.76189C9.20955 4.76189 8.43812 4.8857 7.68669 5.13046M3.80955 3.80951L16.1905 16.2581"
      stroke="currentColor" stroke-linecap="round" stroke-linejoin="round" />
  </symbol>
  <symbol id="eye-opened" viewBox="0 0 20 20" fill="none" xmlns="http://www.w3.org/2000/svg">
    <path fill-rule="evenodd" clip-rule="evenodd"
      d="M10 15.2381C12.981 15.2381 15.6791 13.4924 18.0953 10C15.6791 6.50762 12.981 4.7619 10 4.7619C7.01907 4.7619 4.32098 6.50762 1.90479 10C4.32098 13.4924 7.01907 15.2381 10 15.2381Z"
      stroke="currentColor" stroke-linecap="round" stroke-linejoin="round" />
    <path fill-rule="evenodd" clip-rule="evenodd"
      d="M10 6.66666C10.1762 6.66666 10.3486 6.68 10.5172 6.70666C10.4463 7.08675 10.4691 7.47837 10.5835 7.84769C10.6979 8.217 10.9006 8.55289 11.1739 8.82633C11.4473 9.09977 11.7831 9.30253 12.1524 9.41708C12.5216 9.53164 12.9132 9.55454 13.2934 9.48381C13.3989 10.1569 13.2956 10.8462 12.9974 11.4589C12.6992 12.0715 12.2204 12.578 11.6255 12.9102C11.0307 13.2425 10.3483 13.3844 9.67028 13.317C8.99228 13.2495 8.35123 12.9759 7.83346 12.533C7.3157 12.0901 6.9461 11.4992 6.77443 10.8398C6.60277 10.1805 6.63728 9.48432 6.87333 8.84517C7.10939 8.20602 7.53563 7.65456 8.09467 7.26505C8.6537 6.87554 9.31867 6.66671 10 6.66666Z"
      stroke="currentColor" stroke-linecap="round" stroke-linejoin="round" />
  </symbol>
  <symbol id="menu" viewBox="0 0 20 20" fill="none" xmlns="http://www.w3.org/2000/svg">
    <path d="M14.7619 10H8.09521M14.7619 13.8095H8.09521M14.7619 6.19049H8.09521" stroke="currentColor"
      stroke-width="1.5" stroke-linecap="round" stroke-linejoin="round" />
    <path fill-rule="evenodd" clip-rule="evenodd"
      d="M5.23707 7.14286C5.71326 7.14286 6.18945 6.66667 6.18945 6.19048C6.18945 5.71429 5.71326 5.2381 5.23707 5.2381C4.76088 5.2381 4.28564 5.71429 4.28564 6.19048C4.28564 6.66667 4.76088 7.14286 5.23707 7.14286ZM5.23707 10.9524C5.71326 10.9524 6.18945 10.4762 6.18945 10C6.18945 9.52381 5.71326 9.04762 5.23707 9.04762C4.76088 9.04762 4.28564 9.52381 4.28564 10C4.28564 10.4762 4.76088 10.9524 5.23707 10.9524ZM5.23707 14.7619C5.71326 14.7619 6.18945 14.2857 6.18945 13.8095C6.18945 13.3333 5.71326 12.8571 5.23707 12.8571C4.76088 12.8571 4.28564 13.3333 4.28564 13.8095C4.28564 14.2857 4.76088 14.7619 5.23707 14.7619Z"
      fill="currentColor" />
  </symbol>
  <symbol id="close" viewBox="0 0 20 20" fill="none" xmlns="http://www.w3.org/2000/svg">
    <path d="M14.7618 14.7619L5.23804 5.2381M14.7618 5.2381L5.23804 14.7619" stroke="currentColor"
      stroke-linecap="round" stroke-linejoin="round" />
  </symbol>
  <symbol id="phone" viewBox="0 0 28 28" fill="none" xmlns="http://www.w3.org/2000/svg">
    <path
      d="M11.333 20.6666H16.6663M9.99967 4.66663H17.9997C18.7069 4.66663 19.3852 4.94758 19.8853 5.44767C20.3854 5.94777 20.6663 6.62605 20.6663 7.33329V20.6666C20.6663 21.3739 20.3854 22.0521 19.8853 22.5522C19.3852 23.0523 18.7069 23.3333 17.9997 23.3333H9.99967C9.29243 23.3333 8.61415 23.0523 8.11406 22.5522C7.61396 22.0521 7.33301 21.3739 7.33301 20.6666V7.33329C7.33301 6.62605 7.61396 5.94777 8.11406 5.44767C8.61415 4.94758 9.29243 4.66663 9.99967 4.66663Z"
      stroke="currentColor" stroke-linecap="round" stroke-linejoin="round" />
  </symbol>
  <symbol id="mail" viewBox="0 0 28 28" fill="none" xmlns="http://www.w3.org/2000/svg">
    <path
      d="M7.33366 10L14.0003 14L20.667 10M4.66699 8.66667V19.3333C4.66699 20.0406 4.94794 20.7189 5.44804 21.219C5.94814 21.719 6.62641 22 7.33366 22H20.667C21.3742 22 22.0525 21.719 22.5526 21.219C23.0527 20.7189 23.3337 20.0406 23.3337 19.3333V8.66667C23.3337 7.95942 23.0527 7.28115 22.5526 6.78105C22.0525 6.28095 21.3742 6 20.667 6H7.33366C6.62641 6 5.94814 6.28095 5.44804 6.78105C4.94794 7.28115 4.66699 7.95942 4.66699 8.66667Z"
      stroke="currentColor" stroke-linecap="round" stroke-linejoin="round" />
  </symbol>
  <symbol id="tg" viewBox="0 0 28 28" fill="none" xmlns="http://www.w3.org/2000/svg">
    <g clip-path="url(#clip0_1426_122)">
      <path fill-rule="evenodd" clip-rule="evenodd"
        d="M23.0732 5.16833C23.3615 5.04699 23.677 5.00514 23.987 5.04714C24.297 5.08913 24.59 5.21345 24.8356 5.40713C25.0813 5.60082 25.2705 5.8568 25.3836 6.14843C25.4967 6.44006 25.5296 6.75668 25.4788 7.06533L22.8328 23.1152C22.5762 24.6633 20.8775 25.5512 19.4577 24.78C18.27 24.1348 16.506 23.1408 14.9193 22.1037C14.126 21.5845 11.6958 19.922 11.9945 18.739C12.2512 17.7275 16.3345 13.9265 18.6678 11.6667C19.5837 10.7788 19.166 10.2667 18.0845 11.0833C15.3988 13.111 11.0868 16.1945 9.66117 17.0625C8.4035 17.8278 7.74783 17.9585 6.96383 17.8278C5.5335 17.5898 4.207 17.2212 3.12433 16.772C1.66133 16.1653 1.7325 14.154 3.12317 13.5683L23.0732 5.16833Z"
        fill="currentColor" />
    </g>
    <defs>
      <clipPath id="clip0_1426_122">
        <rect width="28" height="28" fill="white" />
      </clipPath>
    </defs>
  </symbol>
  <symbol id="arrow" viewBox="0 0 20 20" fill="none" xmlns="http://www.w3.org/2000/svg">
    <path d="M13.8105 8.0957L10.0009 11.9052L6.19141 8.0957" stroke="currentColor" stroke-linecap="round"
      stroke-linejoin="round" />
  </symbol>
  <symbol id="plus" viewBox="0 0 20 20" fill="none" xmlns="http://www.w3.org/2000/svg">
    <g clip-path="url(#clip0_1522_4577)">
      <path
        d="M16.6666 9.44401H10.5555V3.3329C10.5555 3.18556 10.497 3.04425 10.3928 2.94006C10.2886 2.83588 10.1473 2.77734 9.99993 2.77734C9.85259 2.77734 9.71128 2.83588 9.60709 2.94006C9.50291 3.04425 9.44437 3.18556 9.44437 3.3329V9.44401H3.33326C3.18592 9.44401 3.04461 9.50254 2.94043 9.60673C2.83624 9.71092 2.77771 9.85222 2.77771 9.99957C2.77497 10.0718 2.78773 10.1437 2.81515 10.2106C2.84257 10.2774 2.88399 10.3376 2.93664 10.3871C2.98929 10.4366 3.05193 10.4742 3.12035 10.4975C3.18877 10.5207 3.26137 10.529 3.33326 10.5218H9.44437V16.6662C9.44437 16.8136 9.50291 16.9549 9.60709 17.0591C9.71128 17.1633 9.85259 17.2218 9.99993 17.2218C10.1473 17.2218 10.2886 17.1633 10.3928 17.0591C10.497 16.9549 10.5555 16.8136 10.5555 16.6662V10.5551H16.6666C16.8139 10.5551 16.9552 10.4966 17.0594 10.3924C17.1636 10.2882 17.2222 10.1469 17.2222 9.99957C17.2222 9.85222 17.1636 9.71092 17.0594 9.60673C16.9552 9.50254 16.8139 9.44401 16.6666 9.44401Z"
        fill="currentColor" />
    </g>
  </symbol>

</svg>